<svg width="77" height="48" viewBox="0 0 77 48" fill="none" xmlns="http://www.w3.org/2000/svg">
<path d="M0 21.637C0.76418 21.4227 1.31439 21.2236 1.65063 21.0398C1.98687 20.8255 2.21612 20.5498 2.33839 20.2129C2.46066 19.8761 2.52179 19.3554 2.52179 18.651V7.02859C2.52179 5.80357 2.43009 4.83886 2.24669 4.13447C2.06329 3.43008 1.71176 2.72568 1.19212 2.02129L0.825315 1.51597L1.19212 1.01065H10.8208C12.502 1.01065 13.633 0.811581 14.2138 0.413447L14.764 0L15.2225 0.413447V6.15576L14.3055 6.47733C13.7552 4.82354 13.205 3.69039 12.6548 3.07788C12.1352 2.46537 11.371 2.15911 10.3623 2.15911H8.84921C8.05446 2.15911 7.53482 2.31224 7.29028 2.6185C7.04574 2.89413 6.92347 3.50664 6.92347 4.45604V11.3468H10.1789C11.371 11.3468 12.1505 10.8874 12.5173 9.96866L12.7465 9.32552L13.3426 9.64709V14.7922L12.3339 15.1597L12.1505 14.195C12.0282 13.5212 11.7531 13.0772 11.3252 12.8628C10.8972 12.6178 10.0872 12.4953 8.89506 12.4953H6.92347V16.446C6.92347 17.6404 7.01518 18.6051 7.19858 19.3401C7.41255 20.0445 7.77936 20.7489 8.299 21.4533L8.6658 22.0045L8.299 22.4639H0.320956L0 21.637Z" fill="#008CFF"/>
<path d="M17.3359 21.637C18.039 21.4533 18.5433 21.2695 18.849 21.0858C19.1852 20.8714 19.3992 20.5958 19.4909 20.2589C19.6132 19.8914 19.6743 19.3554 19.6743 18.651V6.70702C19.6743 5.23699 19.552 4.21103 19.3075 3.62914C19.0935 3.01663 18.5433 2.34286 17.6569 1.60785L18.0695 1.01065H25.8183L26.1393 1.74566C25.2528 2.2663 24.6873 2.75631 24.4428 3.2157C24.1982 3.64445 24.076 4.42541 24.076 5.55856V16.8594C24.076 18.2988 24.183 19.3248 24.3969 19.9373C24.6415 20.5192 25.1917 21.1777 26.0476 21.9127L25.6808 22.4639H17.6569L17.3359 21.637Z" fill="#008CFF"/>
<path d="M31.2266 6.93671C31.2266 5.83419 31.1807 5.0073 31.089 4.45604C30.9973 3.87415 30.8139 3.38414 30.5388 2.986C30.2637 2.58787 29.8205 2.12848 29.2091 1.60785L29.6218 1.01065H37.5998L37.9208 1.74566C37.2177 2.1438 36.7134 2.49599 36.4077 2.80225C36.102 3.10851 35.8881 3.49133 35.7658 3.95071C35.6741 4.4101 35.6282 5.1298 35.6282 6.10982V18.9267C35.6282 19.9067 35.7658 20.5498 36.0409 20.8561C36.316 21.1623 36.9273 21.3155 37.8749 21.3155H39.6173C40.5037 21.3155 41.2067 21.0245 41.7264 20.4426C42.246 19.8301 42.781 18.6817 43.3312 16.9972L44.2482 17.3188V22.8314L43.7897 23.2449C43.3923 22.9386 42.9491 22.7242 42.46 22.6017C41.9709 22.5099 41.2373 22.4639 40.2592 22.4639H28.9799L28.7048 21.637C29.4689 21.4227 30.0191 21.2236 30.3554 21.0398C30.6916 20.8255 30.9209 20.5498 31.0432 20.2129C31.1654 19.8761 31.2266 19.3554 31.2266 18.651V6.93671Z" fill="#008CFF"/>
<path d="M20.3578 46.0246C19.2573 47.3415 17.8207 48 16.0478 48C14.9474 48 14.0762 47.755 13.4343 47.265C12.8229 46.7443 12.288 45.8715 11.8295 44.6465L10.4998 40.6039C10.1942 39.777 9.91906 39.1798 9.67452 38.8123C9.42998 38.4142 9.04789 38.1079 8.52825 37.8935L7.74879 37.4801L7.84049 37.0207C8.08503 37.0513 8.40598 37.0666 8.80336 37.0666C9.17016 37.0666 9.42998 37.0513 9.58282 37.0207C10.7138 36.8369 11.6003 36.3163 12.2422 35.4588C12.8841 34.6013 13.205 33.4987 13.205 32.1512C13.205 30.5281 12.8229 29.2418 12.0588 28.2924C11.2946 27.3124 10.2859 26.8223 9.03261 26.8223C7.65709 26.8223 6.96932 27.4655 6.96932 28.7518V41.5686C6.96932 42.763 7.06103 43.7277 7.24443 44.4627C7.4584 45.1671 7.82521 45.8715 8.34485 46.5759L8.71166 47.1272L8.34485 47.5866H0.366807L0.0458508 46.7597C0.810031 46.5453 1.36024 46.3462 1.69648 46.1625C2.03272 45.9481 2.26197 45.6724 2.38424 45.3356C2.50651 44.9987 2.56765 44.478 2.56765 43.7737V31.554C2.56765 30.4821 2.47594 29.6705 2.29254 29.1193C2.1397 28.5374 1.75761 28.0627 1.14627 27.6952L0.596061 27.3736L0.779464 26.7764C1.72705 26.4701 2.93445 26.2251 4.40168 26.0414C5.89947 25.827 7.22915 25.7198 8.3907 25.7198C11.2946 25.7198 13.5871 26.3017 15.2683 27.4655C16.9495 28.6293 17.7901 30.2218 17.7901 32.2431C17.7901 33.6519 17.3316 34.9075 16.4146 36.01C15.5281 37.0819 14.3819 37.8017 12.9758 38.1692C14.0762 38.6592 14.8404 39.4861 15.2683 40.6498L16.8731 45.1518C17.1176 45.8868 17.5914 46.2543 18.2945 46.2543C18.8447 46.2543 19.4102 46.0093 19.991 45.5193L20.3578 46.0246Z" fill="#020C15"/>
<path d="M29.5369 46.484C30.4233 46.484 31.2028 46.3309 31.8753 46.0246C32.5477 45.6878 33.2049 45.1365 33.8469 44.3709L34.3971 44.7843C33.694 45.7949 32.7923 46.5912 31.6919 47.1731C30.622 47.7244 29.4452 48 28.1614 48C26.7553 48 25.4867 47.6631 24.3557 46.9894C23.2553 46.3156 22.3842 45.3968 21.7422 44.233C21.1003 43.0386 20.7794 41.6911 20.7794 40.1905C20.7794 37.8017 21.4977 35.9029 22.9344 34.4941C24.4016 33.0547 26.3426 32.335 28.7574 32.335C30.4692 32.335 31.86 32.7484 32.9298 33.5753C34.0303 34.3716 34.5805 35.4128 34.5805 36.6991C34.5805 38.1692 33.9538 39.3482 32.7006 40.2364C31.4779 41.0939 29.7967 41.5227 27.657 41.5227C26.8011 41.5227 26.0217 41.4614 25.3186 41.3389C25.4714 42.9315 25.9299 44.1871 26.6941 45.1059C27.4583 46.0246 28.4059 46.484 29.5369 46.484ZM28.2531 33.4375C27.3055 33.4375 26.5566 34.0194 26.0064 35.1832C25.4867 36.3163 25.2269 37.9088 25.2269 39.9608V40.6958C25.5631 40.6958 25.9758 40.6651 26.4649 40.6039C27.7487 40.4508 28.7268 40.0373 29.3993 39.3636C30.1024 38.6592 30.4539 37.7404 30.4539 36.6072C30.4539 35.6885 30.2399 34.9381 29.812 34.3563C29.4146 33.7437 28.895 33.4375 28.2531 33.4375Z" fill="#020C15"/>
<path d="M41.8582 37.4341C41.2163 37.8017 40.4521 37.9854 39.5657 37.9854C38.9238 37.9854 38.4194 37.8017 38.0526 37.4341C37.6858 37.036 37.5024 36.4847 37.5024 35.7804C37.5024 34.7391 38.0067 33.9122 39.0155 33.2997C40.0547 32.6565 41.3997 32.335 43.0503 32.335C45.0066 32.335 46.535 32.7637 47.6354 33.6212C48.7664 34.4788 49.3319 35.6425 49.3319 37.1126V45.0599C49.3319 45.9175 49.6376 46.3462 50.2489 46.3462C50.8297 46.3462 51.3952 46.1165 51.9454 45.6571L52.3122 46.1165C51.1812 47.3722 49.8363 48 48.2773 48C47.3603 48 46.6573 47.7703 46.1682 47.3109C45.7097 46.8515 45.4346 46.1318 45.3429 45.1518H45.1595C44.6704 46.04 44.0132 46.7443 43.1879 47.265C42.3931 47.755 41.4761 48 40.4368 48C39.2753 48 38.343 47.6478 37.6399 46.9434C36.9369 46.2084 36.5854 45.259 36.5854 44.0952C36.5854 42.7783 37.212 41.7371 38.4653 40.9714C39.7185 40.2058 41.415 39.8229 43.5547 39.8229C43.9521 39.8229 44.5176 39.8536 45.2512 39.9148V37.6179C45.2512 36.1172 45.0678 35.0453 44.701 34.4022C44.3342 33.7284 43.7381 33.3916 42.9128 33.3916C42.332 33.3916 41.8735 33.5753 41.5373 33.9428C41.201 34.3103 41.0329 34.785 41.0329 35.3669C41.0329 36.2857 41.308 36.9748 41.8582 37.4341ZM42.546 45.7031C44.3494 45.7031 45.2512 44.0646 45.2512 40.7877C43.7228 40.7877 42.5765 41.048 41.8124 41.5686C41.0482 42.0586 40.6661 42.763 40.6661 43.6818C40.6661 44.2943 40.8342 44.7843 41.1704 45.1518C41.5067 45.5193 41.9652 45.7031 42.546 45.7031Z" fill="#020C15"/>
<path d="M70.8467 46.1165C69.7157 47.3722 68.386 48 66.8577 48C65.9101 48 65.207 47.8009 64.7485 47.4028C64.29 46.974 63.9843 46.285 63.8315 45.3356C63.0367 46.2543 62.2114 46.9281 61.3556 47.3569C60.4997 47.7856 59.5521 48 58.5128 48C56.9844 48 55.7312 47.3262 54.753 45.9787C53.8055 44.6312 53.3317 42.8855 53.3317 40.7417C53.3317 38.1692 54.0041 36.1326 55.3491 34.6319C56.6941 33.1006 58.5281 32.335 60.8512 32.335C61.921 32.335 62.8992 32.58 63.7857 33.07V27.9708C63.7857 27.5421 63.587 27.3277 63.1896 27.3277H61.6307L61.4473 26.8683C62.0586 26.317 62.8381 25.8883 63.7857 25.582C64.7332 25.2451 65.6655 25.0767 66.5826 25.0767C66.9799 25.0767 67.3009 25.1686 67.5454 25.3523C67.7899 25.5054 67.9122 25.7351 67.9122 26.0414V44.9681C67.9122 45.8868 68.2026 46.3462 68.7834 46.3462C69.3642 46.3462 69.9297 46.1165 70.4799 45.6571L70.8467 46.1165ZM60.897 45.795C62.0586 45.795 63.0215 45.1518 63.7857 43.8655V33.9888C63.1743 33.6825 62.5018 33.5294 61.7682 33.5294C59.2006 33.5294 57.9167 35.7497 57.9167 40.1905C57.9167 41.9974 58.1613 43.3908 58.6504 44.3709C59.17 45.3203 59.9189 45.795 60.897 45.795Z" fill="#020C15"/>
<path d="M72.0023 45.3815C72.0023 44.8609 72.2926 44.2943 72.8734 43.6818C73.4542 43.0386 73.9891 42.7171 74.4782 42.7171C74.9673 42.7171 75.5022 43.0386 76.083 43.6818C76.6943 44.2943 77 44.8609 77 45.3815C77 45.9021 76.6943 46.4687 76.083 47.0812C75.5022 47.6937 74.9673 48 74.4782 48C73.9891 48 73.4542 47.6937 72.8734 47.0812C72.2926 46.4687 72.0023 45.9021 72.0023 45.3815Z" fill="#008CFF"/>
</svg>
